# xmcd CD database file
#
# Track frame offsets:
#	183
#	13425
#	30468
#	42220
#	54315
#	68265
#	78333
#	92805
#	105328
#	117288
#	128415
#	138173
#	152330
#
# Disc length: 2184 seconds
#
# Revision: 6
# Processed by: cddbd v1.5.2PL0 Copyright (c) Steve Scherf et al.
# Submitted via: CDex 1.70beta2
#
DISCID=8f08860d
DTITLE=Various Artist - Country and Western Vol. 4
DYEAR=1987
DGENRE=Country
TTITLE0=Kenny Rogers - Ruby, don't take your love to town
TTITLE1=Lyn Anderson - Blue Bayoi
TTITLE2=Dolly Parton - Makin' believe
TTITLE3=Waylon Jennings - Don't thing twice
TTITLE4=Johnny Paycheck - I feel like crying
TTITLE5=Willie Nelson - I didn't sleep a wink
TTITLE6=George Jones - A good year for the roses
TTITLE7=Billy Jo Spears - Sunshine
TTITLE8=Faron Young - Is it really over
TTITLE9=Hank Locklin - Send me a pillow you dream on
TTITLE10=Dave Dudley - Six days on the road
TTITLE11=Willie Nelson - So much to do
TTITLE12=Jonny Paycheck - Take this job ans shove it
EXTD=YEAR: 1987
EXTT0=
EXTT1=
EXTT2=
EXTT3=
EXTT4=
EXTT5=
EXTT6=
EXTT7=
EXTT8=
EXTT9=
EXTT10=
EXTT11=
EXTT12=
PLAYORDER=
